<?xml version="1.0" encoding="UTF-8"?>
<svg version="1.1" xmlns="http://www.w3.org/2000/svg" width="1024" height="1024">
<path d="M0 0 C0.33 0.66 0.66 1.32 1 2 C1.55534424 2.0093457 2.11068848 2.01869141 2.68286133 2.02832031 C56.66221208 3.14888483 110.26605907 19.49941368 153.77661133 51.96655273 C156.2019175 53.77300067 158.10235948 55.03411983 161 56 C162.13556351 57.10115249 163.26421378 58.21021978 164.359375 59.3515625 C169.24116841 64.25660255 174.54628591 68.76479224 179.8125 73.25 C189.81802989 82.02501109 198.64450591 91.53159991 206.61865234 102.17431641 C208.01957914 104.02587713 209.45288773 105.84798405 210.89453125 107.66796875 C228.25462052 129.81980861 241.0953023 155.30862057 250.2578125 181.8515625 C251.22107543 184.63995518 252.21319925 187.41762782 253.20751953 190.19506836 C253.82823196 191.93165556 254.44175494 193.67080789 255.0546875 195.41015625 C255.92229128 197.93910046 255.92229128 197.93910046 257 200 C257.23799717 201.89134031 257.4731975 203.78308878 257.69189453 205.67675781 C258.34591604 210.60834945 259.43819681 215.47530711 260.45117188 220.34375 C263.38278217 235.10212276 264.33401254 249.80946847 264.26074219 264.83129883 C264.25001982 267.43269208 264.26071805 270.03339297 264.2734375 272.63476562 C264.28776167 288.33248385 263.00407261 303.79805338 259.8125 319.1875 C259.59819336 320.23010986 259.38388672 321.27271973 259.16308594 322.34692383 C255.05654283 341.65842198 248.98913484 359.95967931 241 378 C240.65291992 378.7852002 240.30583984 379.57040039 239.94824219 380.37939453 C229.21107247 404.42221321 214.69016921 425.41766709 197.953125 445.63671875 C196.82426046 447.00264484 195.70430897 448.37625854 194.609375 449.76953125 C191.7738645 453.35172618 188.55643343 456.210385 185.09375 459.15625 C183.02155257 460.98102087 181.10765659 462.89188746 179.1875 464.875 C174.45264215 469.66512856 169.28073438 473.82953829 164 478 C162.48212891 479.20849609 162.48212891 479.20849609 160.93359375 480.44140625 C106.68267485 523.22328402 38.16627201 542.23274799 -30.47290039 534.98217773 C-54.82209104 532.08735318 -79.38259953 526.61348889 -102 517 C-102.76441406 516.67805664 -103.52882813 516.35611328 -104.31640625 516.02441406 C-130.92499362 504.71260176 -155.44082211 489.70226729 -176.75 470.06640625 C-178.7344682 468.24386514 -180.75785892 466.49216442 -182.8125 464.75 C-186.68377629 461.37360852 -190.34711917 457.79652457 -194 454.1875 C-194.58885986 453.61161133 -195.17771973 453.03572266 -195.78442383 452.44238281 C-197.22951182 451.00049617 -198.61990861 449.50421546 -200 448 C-200 447.34 -200 446.68 -200 446 C-200.66 446 -201.32 446 -202 446 C-204.89101537 442.86098086 -207.39174319 439.37539116 -210 436 C-210.75667969 435.06929687 -211.51335937 434.13859375 -212.29296875 433.1796875 C-255.08840853 379.70284105 -274.17811392 308.16878227 -266.91186523 240.36547852 C-266.62424669 237.90797228 -266.3157127 235.45403984 -266 233 C-265.90879883 232.24058105 -265.81759766 231.48116211 -265.72363281 230.69873047 C-259.30482866 178.45867355 -235.42872316 127.79603456 -199.3984375 89.546875 C-197.26765168 87.28421644 -195.21489367 84.97996383 -193.1875 82.625 C-190.25556233 79.25609085 -187.27199415 76.04371549 -184 73 C-183.34 73 -182.68 73 -182 73 C-182 72.34 -182 71.68 -182 71 C-180.33984375 69.4765625 -180.33984375 69.4765625 -177.9375 67.625 C-174.81020734 65.19850121 -171.70001232 62.76613365 -168.6640625 60.2265625 C-159.00023285 52.1974105 -148.78815799 45.42453332 -138 39 C-137.26410645 38.55914062 -136.52821289 38.11828125 -135.77001953 37.6640625 C-112.03814479 23.58176326 -86.28883012 14.40181411 -59.59765625 7.69140625 C-57.0405783 7.1045022 -57.0405783 7.1045022 -55 6 C-53.67178382 5.8132196 -52.33645776 5.67619172 -51 5.5625 C-47.73948554 5.27072101 -44.49836551 4.93677315 -41.25 4.52734375 C-27.8667988 2.84379321 -14.4757912 2.38520156 -1 2 C-0.67 1.34 -0.34 0.68 0 0 Z M-149 82 C-149.96164062 82.75796875 -150.92328125 83.5159375 -151.9140625 84.296875 C-159.12738083 90.17709906 -165.77324277 96.56841903 -172.375 103.125 C-173.21933594 103.9600708 -174.06367188 104.7951416 -174.93359375 105.65551758 C-180.07011016 110.81798113 -184.66322689 116.15436849 -189 122 C-189.91219318 123.18793579 -190.82491802 124.37546359 -191.73828125 125.5625 C-211.7949122 152.13878022 -235.42786117 192.33827323 -234.96484375 226.6015625 C-235 229 -235 229 -235.9296875 231.58984375 C-237.4766368 236.51862748 -237.74583811 241.42704083 -238.125 246.5625 C-238.2084668 247.67149658 -238.29193359 248.78049316 -238.37792969 249.9230957 C-242.77462345 312.63879173 -223.99043995 374.94721669 -182.61328125 422.7578125 C-181.15483145 424.38170599 -179.68650509 425.99679988 -178.20703125 427.6015625 C-176.61989852 429.32634037 -175.05758903 431.0740822 -173.51171875 432.8359375 C-172.70347656 433.75632812 -171.89523437 434.67671875 -171.0625 435.625 C-170.33160156 436.46289062 -169.60070312 437.30078125 -168.84765625 438.1640625 C-167.19766697 440.23495122 -167.19766697 440.23495122 -165 440 C-165 440.66 -165 441.32 -165 442 C-163.62375656 443.47098687 -163.62375656 443.47098687 -161.75 445 C-161.01652344 445.62132812 -160.28304687 446.24265625 -159.52734375 446.8828125 C-158.69332031 447.58148437 -157.85929687 448.28015625 -157 449 C-156.09378906 449.78117187 -155.18757813 450.56234375 -154.25390625 451.3671875 C-106.54995032 492.03908618 -43.45946092 511.52518168 18.87939453 506.69970703 C61.69526822 502.32277503 106.3260851 487.65879773 140 460 C141.25876953 458.98873047 141.25876953 458.98873047 142.54296875 457.95703125 C148.07880412 453.46785309 153.46046338 448.86322008 158.7109375 444.04296875 C160.2963076 442.62803946 161.92981763 441.26593345 163.59765625 439.94921875 C165.67364887 438.26479547 167.34099092 436.65408537 169.0625 434.625 C171.24188499 432.06434031 173.42590784 429.5128389 175.66015625 427 C214.87845733 382.60092839 235.19394515 325.52560278 235.25 266.5625 C235.25100708 265.81943604 235.25201416 265.07637207 235.25305176 264.31079102 C235.24153389 251.66958752 234.39487825 239.43700916 232 227 C231.85546387 226.22881836 231.71092773 225.45763672 231.56201172 224.66308594 C230.55024081 219.3947063 229.34648492 214.1924598 228 209 C227.80067871 208.23042969 227.60135742 207.46085938 227.39599609 206.66796875 C219.60546308 177.35301465 206.19053981 150.21668166 188 126 C187.36578125 125.13375 186.7315625 124.2675 186.078125 123.375 C179.78672317 114.98646423 172.4266815 107.37960269 165 100 C164.20980469 99.18660156 163.41960937 98.37320313 162.60546875 97.53515625 C158.32607792 93.15897791 154.11488006 89.04601142 149.08203125 85.546875 C147.20679087 84.15363824 145.47696532 82.69207165 143.71875 81.15625 C127.40255343 67.0690184 107.75124036 57.26877344 88 49 C86.94039062 48.55527344 85.88078125 48.11054688 84.7890625 47.65234375 C80.54584328 45.8862287 80.54584328 45.8862287 76.16015625 44.54296875 C74 44 74 44 70.98828125 42.984375 C-2.5638108 18.28462889 -88.52842587 33.55498543 -149 82 Z " fill="#F8F9F9" transform="translate(514,242)"/>
<path d="M0 0 C2.59560454 1.81088689 4.34219508 3.6803378 6.25390625 6.1875 C8.57204564 8.91620904 11.35204596 11.09322256 14.11328125 13.359375 C14.63277344 13.85953125 15.15226563 14.3596875 15.6875 14.875 C15.6875 15.535 15.6875 16.195 15.6875 16.875 C16.49960937 17.19984375 16.49960937 17.19984375 17.328125 17.53125 C20.50395344 19.33999997 22.89478081 21.79223799 25.4375 24.375 C25.94410156 24.87386719 26.45070313 25.37273437 26.97265625 25.88671875 C30.6875 29.62158861 30.6875 29.62158861 30.6875 31.875 C31.21674072 32.07826904 31.74598145 32.28153809 32.29125977 32.4909668 C35.7360241 34.48061214 38.25180019 37.1942585 41.02734375 40.01953125 C41.9333004 40.92973274 41.9333004 40.92973274 42.8575592 41.85832214 C44.78479535 43.79672707 46.70497166 45.74195794 48.625 47.6875 C49.91294801 48.98548607 51.20135471 50.28301717 52.49023438 51.58007812 C55.34781087 54.45724901 58.20094368 57.33874369 61.05015564 60.22419739 C65.18805122 64.39610465 69.35794758 68.53569547 73.53173828 72.67163086 C79.23748895 78.32842423 84.93564938 83.99279949 90.62950325 89.66156673 C94.06758474 93.08395827 97.50843214 96.50347301 100.95556641 99.91674805 C104.3006495 103.22919695 107.63831493 106.5489565 110.97100449 109.87387276 C112.23860662 111.13594713 113.5088392 112.39538541 114.78177261 113.65208244 C116.56228248 115.41075823 118.33312384 117.17865919 120.10205078 118.94897461 C120.62575256 119.46189056 121.14945435 119.97480652 121.68902588 120.50326538 C125.29661335 124.14153356 128.12544228 127.87735883 129.0859375 133 C129.07820313 133.61875 129.07046875 134.2375 129.0625 134.875 C129.07023437 135.49375 129.07796875 136.1125 129.0859375 136.75 C127.66082216 144.35061515 121.9068778 149.07136453 116.625 154.25 C115.79677734 155.08144531 114.96855469 155.91289063 114.11523438 156.76953125 C107.95462592 162.875 107.95462592 162.875 105.6875 162.875 C105.460625 163.431875 105.23375 163.98875 105 164.5625 C102.66861224 168.6701832 99.12322367 171.55004039 95.5 174.5 C92.56869654 176.75222335 92.56869654 176.75222335 90.6875 179.875 C90.0275 179.875 89.3675 179.875 88.6875 179.875 C88.460625 180.42671875 88.23375 180.9784375 88 181.546875 C86.30024074 184.56192417 84.13945184 186.68730369 81.6875 189.125 C80.800625 190.01703125 79.91375 190.9090625 79 191.828125 C76.6875 193.875 76.6875 193.875 74.6875 193.875 C74.42324219 194.4637793 74.15898438 195.05255859 73.88671875 195.65917969 C72.64381056 197.95572584 71.33743519 199.48333166 69.5 201.328125 C68.88382813 201.946875 68.26765625 202.565625 67.6328125 203.203125 C66.99085938 203.83734375 66.34890625 204.4715625 65.6875 205.125 C65.04554688 205.7746875 64.40359375 206.424375 63.7421875 207.09375 C63.12601563 207.70734375 62.50984375 208.3209375 61.875 208.953125 C61.31167969 209.51418945 60.74835938 210.07525391 60.16796875 210.65332031 C58.6875 211.875 58.6875 211.875 56.6875 211.875 C56.44 212.44734375 56.1925 213.0196875 55.9375 213.609375 C54.49433801 216.22510611 52.80533778 218.02273456 50.6875 220.125 C49.635625 221.18460938 49.635625 221.18460938 48.5625 222.265625 C46.6875 223.875 46.6875 223.875 44.6875 223.875 C44.3575 224.865 44.0275 225.855 43.6875 226.875 C39.36931818 231.64772727 39.36931818 231.64772727 35.6875 232.875 C35.01070067 234.20321869 34.34544436 235.53734106 33.6875 236.875 C31.8125 238.69140625 31.8125 238.69140625 29.6875 240.4375 C27.12977537 242.54856316 25.554365 244.07470251 23.6875 246.875 C23.0275 246.875 22.3675 246.875 21.6875 246.875 C21.3575 247.865 21.0275 248.855 20.6875 249.875 C19.23889313 251.12606957 17.78473133 252.37199773 16.2890625 253.56640625 C13.2248708 256.07007508 10.53102006 258.96535654 7.84375 261.86328125 C3.7123144 266.2092337 0.55064073 269.33206823 -5.3125 270.875 C-10.52913691 270.99212656 -15.25694491 270.35119008 -19.3125 266.875 C-22.45061013 262.54949685 -23.97068935 259.2497061 -23.71875 253.875 C-23.00748624 250.37339379 -21.2826299 247.83019485 -19.3125 244.875 C-18.6525 244.875 -17.9925 244.875 -17.3125 244.875 C-17.3125 244.215 -17.3125 243.555 -17.3125 242.875 C-15.90307617 241.48681641 -15.90307617 241.48681641 -13.91796875 239.8515625 C-8.887457 235.57324574 -4.26834043 230.94098323 0.375 226.25 C1.61733398 225.00089844 1.61733398 225.00089844 2.88476562 223.7265625 C4.47219863 222.13023275 6.05867565 220.53295159 7.64404297 218.93457031 C9.9853367 216.57481476 12.3349281 214.22350874 14.6875 211.875 C15.5846875 210.9778125 16.481875 210.080625 17.40625 209.15625 C25.6875 200.875 25.6875 200.875 28.37890625 198.21875 C30.79383412 195.84157061 30.79383412 195.84157061 33.125 192.875 C35.0171831 190.65976124 36.59221119 189.03719544 38.8125 187.25 C41.26859276 185.2210538 42.82056074 183.39536801 44.6875 180.875 C45.3475 180.875 46.0075 180.875 46.6875 180.875 C47.0175 179.885 47.3475 178.895 47.6875 177.875 C48.3475 177.875 49.0075 177.875 49.6875 177.875 C49.955625 177.235625 50.22375 176.59625 50.5 175.9375 C51.6875 173.875 51.6875 173.875 54.6875 172.875 C54.6875 172.215 54.6875 171.555 54.6875 170.875 C55.3475 170.875 56.0075 170.875 56.6875 170.875 C56.946521 170.28855713 57.20554199 169.70211426 57.47241211 169.09790039 C58.77730711 166.7107055 60.17285392 165.19043411 62.12890625 163.30859375 C62.79470703 162.65826172 63.46050781 162.00792969 64.14648438 161.33789062 C64.84064453 160.66951172 65.53480469 160.00113281 66.25 159.3125 C67.63089017 157.98261224 69.00740828 156.64816548 70.37890625 155.30859375 C70.98935791 154.72134521 71.59980957 154.13409668 72.22875977 153.52905273 C73.91987365 151.82842086 73.91987365 151.82842086 74.6875 148.875 C73.41582694 148.87868717 72.14415388 148.88237434 70.83394527 148.88617325 C40.64390191 148.97281317 10.45389212 149.03876629 -19.73624573 149.07926132 C-23.45250062 149.08426412 -27.16875526 149.08944141 -30.88500977 149.09472656 C-31.62484606 149.0957758 -32.36468235 149.09682505 -33.12693792 149.09790608 C-45.10472328 149.11530915 -57.08243182 149.14684628 -69.06017161 149.18361118 C-81.3513455 149.22102338 -93.64247916 149.24323643 -105.93370765 149.25135398 C-113.51748446 149.2568412 -121.10104411 149.27416909 -128.68475407 149.30666587 C-134.5009323 149.33031839 -140.31697152 149.33281913 -146.13318825 149.32743073 C-148.51845894 149.32853197 -150.90373778 149.33649912 -153.2889595 149.3518219 C-156.54483575 149.37171342 -159.7997817 149.36694146 -163.05567932 149.35601807 C-164.00024461 149.36766943 -164.9448099 149.3793208 -165.91799837 149.39132524 C-171.90430319 149.33701328 -175.39899527 148.34846054 -180.3125 144.875 C-183.52666763 141.24610107 -183.8317447 137.77695546 -183.66796875 133.08984375 C-182.9647852 128.70846932 -180.50724503 125.95773768 -177.3125 123.0625 C-173.95750576 121.07047217 -170.80007356 120.74995607 -166.94720078 120.7363348 C-166.07535448 120.73086036 -165.20350818 120.72538591 -164.3052423 120.71974558 C-163.35193849 120.71876747 -162.39863468 120.71778936 -161.41644287 120.71678162 C-159.89223484 120.70937465 -159.89223484 120.70937465 -158.33723474 120.70181805 C-154.92241597 120.68642431 -151.50761604 120.67807731 -148.09277344 120.66967773 C-145.64886305 120.66010069 -143.20495433 120.65009071 -140.76104736 120.63967896 C-135.49436746 120.61821809 -130.22769017 120.59977744 -124.96099091 120.58407402 C-117.34622354 120.56136429 -109.73148387 120.53322299 -102.11674002 120.50375474 C-89.76240922 120.45609237 -77.4080671 120.41282451 -65.05371094 120.37231445 C-53.05239989 120.33295264 -41.0510989 120.29152476 -29.04980469 120.24731445 C-27.94021867 120.24322804 -27.94021867 120.24322804 -26.80821678 120.23905908 C-23.09724952 120.22537949 -19.38628241 120.21165924 -15.67531538 120.19791877 C15.11226897 120.08397527 45.89987443 119.97723433 76.6875 119.875 C76.0275 119.25625 75.3675 118.6375 74.6875 118 C72.6875 115.875 72.6875 115.875 72.6875 113.875 C72.06875 113.6275 71.45 113.38 70.8125 113.125 C68.33681313 111.66871361 67.73624998 110.49687494 66.6875 107.875 C66.0275 107.875 65.3675 107.875 64.6875 107.875 C59.92005814 103.57267442 59.92005814 103.57267442 58.6875 99.875 C58.0275 99.875 57.3675 99.875 56.6875 99.875 C55.35416667 98.54166667 54.02083333 97.20833333 52.6875 95.875 C50.55440808 94.63987921 50.55440808 94.63987921 48.6875 93.875 C48.6875 92.555 48.6875 91.235 48.6875 89.875 C48.130625 89.66875 47.57375 89.4625 47 89.25 C44.42666861 87.71991107 42.95699645 85.86704548 41.125 83.53125 C39.0158276 81.10111659 36.55833291 79.16700393 34.04296875 77.171875 C33.59566406 76.74390625 33.14835938 76.3159375 32.6875 75.875 C32.6875 75.215 32.6875 74.555 32.6875 73.875 C32.130625 73.648125 31.57375 73.42125 31 73.1875 C28.02590412 71.49949964 25.96741135 69.40823483 23.6875 66.875 C23.6875 66.215 23.6875 65.555 23.6875 64.875 C23.11350967 64.62534485 22.53951935 64.3756897 21.94813538 64.11846924 C19.36187034 62.69588643 17.61116414 61.0597431 15.51733398 58.97949219 C14.70646835 58.17815857 13.89560272 57.37682495 13.06016541 56.5512085 C12.19339676 55.68352844 11.32662811 54.81584839 10.43359375 53.921875 C9.53633072 53.02889709 8.63906769 52.13591919 7.71461487 51.21588135 C5.81828882 49.32529828 3.9242524 47.43269815 2.03344727 45.53662109 C-0.38120776 43.11617967 -2.8070179 40.70727745 -5.23614597 38.30137253 C-7.56152534 35.99433575 -9.87582724 33.67624188 -12.19140625 31.359375 C-13.06019913 30.49979187 -13.928992 29.64020874 -14.82411194 28.75457764 C-24.26765724 19.23820718 -24.26765724 19.23820718 -24.34375 13.53125 C-22.87919953 7.58689808 -20.9031785 3.07768513 -15.453125 -0.265625 C-10.48609029 -2.25969003 -4.96694947 -1.6868885 0 0 Z " fill="#FBFBFB" transform="translate(537.3125,376.125)"/>
<path d="M0 0 C0.66 0 1.32 0 2 0 C3.5078125 1.75 3.5078125 1.75 5.125 4 C5.66382813 4.7425 6.20265625 5.485 6.7578125 6.25 C7.16773438 6.8275 7.57765625 7.405 8 8 C5.69096015 9.15451992 4.39108213 9.12487456 1.82226276 9.12469864 C0.94129848 9.12708959 0.06033419 9.12948054 -0.84732598 9.13194394 C-1.82113538 9.12951145 -2.79494478 9.12707896 -3.79826355 9.12457275 C-5.3431265 9.12668798 -5.3431265 9.12668798 -6.91919881 9.12884593 C-10.39300474 9.13251504 -13.86677026 9.12915548 -17.34057617 9.12597656 C-19.82209302 9.12737057 -22.30360962 9.12926938 -24.78512573 9.13163757 C-29.44582282 9.13555821 -34.10651368 9.13796728 -38.76721195 9.13805357 C-47.92851563 9.13825616 -57.08976628 9.15070797 -66.25105286 9.16766357 C-67.69275718 9.17026942 -69.13446151 9.17286823 -70.57616585 9.1754601 C-72.76132175 9.17939865 -74.94647763 9.18334516 -77.13163346 9.18732132 C-85.37429326 9.20227403 -93.61695469 9.21589478 -101.85961914 9.22802734 C-102.99010668 9.22969769 -102.99010668 9.22969769 -104.14343236 9.23140177 C-116.350619 9.24896862 -128.55777249 9.25184649 -140.76496967 9.25017694 C-153.29583122 9.2488976 -165.8265694 9.26664194 -178.35738355 9.30119491 C-186.08716172 9.32184367 -193.81664441 9.32718337 -201.54643825 9.3128666 C-207.47281446 9.30340233 -213.3989366 9.32002672 -219.32526779 9.34635353 C-221.75566998 9.35300552 -224.18611279 9.35110794 -226.61649895 9.34005547 C-229.93380685 9.32622087 -233.24960362 9.34303778 -236.56681824 9.36749268 C-237.52947403 9.3561373 -238.49212982 9.34478192 -239.48395699 9.33308244 C-245.92201708 9.42541816 -249.11385239 10.77860848 -254 15 C-252.60440273 11.6273066 -251.1078412 9.91954898 -248 8 C-245.15938358 7.12434114 -242.59919045 6.87181532 -239.63470078 6.8613348 C-238.76285448 6.85586036 -237.89100818 6.85038591 -236.9927423 6.84474558 C-236.03943849 6.84376747 -235.08613468 6.84278936 -234.10394287 6.84178162 C-232.57973484 6.83437465 -232.57973484 6.83437465 -231.02473474 6.82681805 C-227.60991597 6.81142431 -224.19511604 6.80307731 -220.78027344 6.79467773 C-218.33636305 6.78510069 -215.89245433 6.77509071 -213.44854736 6.76467896 C-208.18186746 6.74321809 -202.91519017 6.72477744 -197.64849091 6.70907402 C-190.03372354 6.68636429 -182.41898387 6.65822299 -174.80424002 6.62875474 C-162.44990922 6.58109237 -150.0955671 6.53782451 -137.74121094 6.49731445 C-125.73989989 6.45795264 -113.7385989 6.41652476 -101.73730469 6.37231445 C-100.62771867 6.36822804 -100.62771867 6.36822804 -99.49571678 6.36405908 C-95.78474952 6.35037949 -92.07378241 6.33665924 -88.36281538 6.32291877 C-57.57523103 6.20897527 -26.78762557 6.10223433 4 6 C3.34 5.38125 2.68 4.7625 2 4.125 C0 2 0 2 0 0 Z " fill="#EEEDEE" transform="translate(610,490)"/>
<path d="M0 0 C0 4.27623368 -2.51959431 6.12167244 -5.3125 9.0625 C-5.81201172 9.60455078 -6.31152344 10.14660156 -6.82617188 10.70507812 C-9.10457112 13.14643573 -11.21018132 15.14012088 -14 17 C-12.70396588 14.17131143 -11.30810402 12.0298979 -9.1796875 9.765625 C-8.64472656 9.19199219 -8.10976563 8.61835937 -7.55859375 8.02734375 C-7.00300781 7.44082031 -6.44742188 6.85429688 -5.875 6.25 C-5.31167969 5.64800781 -4.74835937 5.04601562 -4.16796875 4.42578125 C-2.78275854 2.94665849 -1.3919271 1.47280359 0 0 Z " fill="#CACBCC" transform="translate(694,663)"/>
<path d="M0 0 C2.31 1.98 4.62 3.96 7 6 C3.89448334 6 2.64738916 5.4606285 0 4 C0 2.68 0 1.36 0 0 Z " fill="#DDDDDD" transform="translate(586,466)"/>
<path d="M0 0 C0.99 0.33 1.98 0.66 3 1 C2.67 2.32 2.34 3.64 2 5 C1.34 3.35 0.68 1.7 0 0 Z " fill="#F6F6F6" transform="translate(272,632)"/>
<path d="M0 0 C0.99 0.495 0.99 0.495 2 1 C2 1.66 2 2.32 2 3 C1.34 3 0.68 3 0 3 C0 2.01 0 1.02 0 0 Z " fill="#F9FAFC" transform="translate(729,420)"/>
<path d="M0 0 C0.66 0.66 1.32 1.32 2 2 C0.68 1.67 -0.64 1.34 -2 1 C-1.34 0.67 -0.68 0.34 0 0 Z " fill="#F9FAFA" transform="translate(389,309)"/>
<path d="M0 0 C0.66 0 1.32 0 2 0 C2 0.66 2 1.32 2 2 C1.34 2 0.68 2 0 2 C0 1.34 0 0.68 0 0 Z " fill="#F7F7F7" transform="translate(660,733)"/>
<path d="M0 0 C0 3 0 3 0 3 Z " fill="#F5F6F6" transform="translate(268,621)"/>
<path d="M0 0 C0.66 0.66 1.32 1.32 2 2 C1.01 2.495 1.01 2.495 0 3 C0 2.01 0 1.02 0 0 Z " fill="#FBFBFB" transform="translate(520,403)"/>
<path d="M0 0 C0.99 0.33 1.98 0.66 3 1 C2.01 1.33 1.02 1.66 0 2 C0 1.34 0 0.68 0 0 Z " fill="#F9F9FA" transform="translate(724,346)"/>
<path d="M0 0 C0.99 0.495 0.99 0.495 2 1 C1.67 1.66 1.34 2.32 1 3 C0.67 2.01 0.34 1.02 0 0 Z " fill="#F9F9F9" transform="translate(369,281)"/>
<path d="M0 0 C3 1 3 1 3 1 Z " fill="#F6F6F6" transform="translate(418,763)"/>
<path d="M0 0 C0.66 0.66 1.32 1.32 2 2 C1.34 2 0.68 2 0 2 C0 1.34 0 0.68 0 0 Z " fill="#F5F5F4" transform="translate(324,701)"/>
<path d="M0 0 C0.66 0 1.32 0 2 0 C1.67 0.66 1.34 1.32 1 2 C0.67 1.34 0.34 0.68 0 0 Z " fill="#F6F6F7" transform="translate(313,691)"/>
<path d="M0 0 C0.99 0.495 0.99 0.495 2 1 C1.01 1.495 1.01 1.495 0 2 C0 1.34 0 0.68 0 0 Z " fill="#F7F8F8" transform="translate(764,598)"/>
<path d="" fill="#F7F8F8" transform="translate(0,0)"/>
<path d="M0 0 C0.66 0.66 1.32 1.32 2 2 C1.34 2 0.68 2 0 2 C0 1.34 0 0.68 0 0 Z " fill="#FEFDFE" transform="translate(609,492)"/>
<path d="M0 0 C0.66 0.66 1.32 1.32 2 2 C1.34 2 0.68 2 0 2 C0 1.34 0 0.68 0 0 Z " fill="#FBFAFB" transform="translate(592,475)"/>
<path d="" fill="#F9F9FA" transform="translate(0,0)"/>
<path d="M0 0 C0.33 0.66 0.66 1.32 1 2 C0.34 1.67 -0.32 1.34 -1 1 C-0.67 0.67 -0.34 0.34 0 0 Z " fill="#FAFAFB" transform="translate(733,429)"/>
<path d="" fill="#FBFBFB" transform="translate(0,0)"/>
<path d="M0 0 C0.66 0.66 1.32 1.32 2 2 C1.34 2 0.68 2 0 2 C0 1.34 0 0.68 0 0 Z " fill="#FCFBFD" transform="translate(529,412)"/>
<path d="M0 0 C0.66 0.66 1.32 1.32 2 2 C1.34 2 0.68 2 0 2 C0 1.34 0 0.68 0 0 Z " fill="#FBFAF9" transform="translate(668,333)"/>
<path d="M0 0 C3 1 3 1 3 1 Z " fill="#F8F8F7" transform="translate(436,287)"/>
<path d="M0 0 C0.33 0.66 0.66 1.32 1 2 C0.34 1.67 -0.32 1.34 -1 1 C-0.67 0.67 -0.34 0.34 0 0 Z " fill="#F8F9F9" transform="translate(373,280)"/>
<path d="M0 0 C3 1 3 1 3 1 Z " fill="#F8F7F9" transform="translate(547,278)"/>
<path d="M0 0 C0.66 0.66 1.32 1.32 2 2 C1.34 2 0.68 2 0 2 C0 1.34 0 0.68 0 0 Z " fill="#F7F7F8" transform="translate(578,249)"/>
<path d="M0 0 C2 1 2 1 2 1 Z " fill="#F4F4F4" transform="translate(518,779)"/>
<path d="" fill="#F8F7F8" transform="translate(0,0)"/>
<path d="M0 0 C2 1 2 1 2 1 Z " fill="#F5F6F5" transform="translate(564,774)"/>
<path d="M0 0 C2 1 2 1 2 1 Z " fill="#F5F5F7" transform="translate(568,773)"/>
<path d="M0 0 C2 1 2 1 2 1 Z " fill="#F6F5F6" transform="translate(428,766)"/>
<path d="" fill="#F6F6F6" transform="translate(0,0)"/>
<path d="M0 0 C2 1 2 1 2 1 Z " fill="#F1F2F0" transform="translate(645,743)"/>
<path d="" fill="#FAFBFB" transform="translate(0,0)"/>
<path d="" fill="#F7F6F6" transform="translate(0,0)"/>
<path d="M0 0 C2 1 2 1 2 1 Z " fill="#F7F8F7" transform="translate(321,699)"/>
<path d="" fill="#F6F6F7" transform="translate(0,0)"/>
<path d="" fill="#F6F6F6" transform="translate(0,0)"/>
<path d="" fill="#F9FBFB" transform="translate(0,0)"/>
<path d="" fill="#FCFBFD" transform="translate(0,0)"/>
<path d="" fill="#FCFCFC" transform="translate(0,0)"/>
<path d="" fill="#F4F6F6" transform="translate(0,0)"/>
<path d="" fill="#FCFBFB" transform="translate(0,0)"/>
<path d="" fill="#F8F8F7" transform="translate(0,0)"/>
<path d="" fill="#F8F7F7" transform="translate(0,0)"/>
<path d="" fill="#FAFAFA" transform="translate(0,0)"/>
<path d="" fill="#F5F5F6" transform="translate(0,0)"/>
<path d="" fill="#FAFBFB" transform="translate(0,0)"/>
<path d="" fill="#FCFCFC" transform="translate(0,0)"/>
<path d="M0 0 C2 1 2 1 2 1 Z " fill="#FCFEFD" transform="translate(608,526)"/>
<path d="M0 0 C2 1 2 1 2 1 Z " fill="#FBFBFC" transform="translate(603,526)"/>
<path d="M0 0 C2 1 2 1 2 1 Z " fill="#FBFBFB" transform="translate(595,526)"/>
<path d="M0 0 C2 1 2 1 2 1 Z " fill="#FBFBFB" transform="translate(579,526)"/>
<path d="M0 0 C2 1 2 1 2 1 Z " fill="#FBFBFA" transform="translate(555,526)"/>
<path d="M0 0 C2 1 2 1 2 1 Z " fill="#FBFBFA" transform="translate(515,526)"/>
<path d="" fill="#F7F7F7" transform="translate(0,0)"/>
<path d="" fill="#F9F9F9" transform="translate(0,0)"/>
<path d="" fill="#FAFAFA" transform="translate(0,0)"/>
<path d="" fill="#F9F9FA" transform="translate(0,0)"/>
<path d="" fill="#F7F8F8" transform="translate(0,0)"/>
<path d="" fill="#FAF9FB" transform="translate(0,0)"/>
<path d="" fill="#FAFBFA" transform="translate(0,0)"/>
<path d="" fill="#FCFCFC" transform="translate(0,0)"/>
<path d="" fill="#FCFBFB" transform="translate(0,0)"/>
<path d="" fill="#FCFCFB" transform="translate(0,0)"/>
<path d="M0 0 C2 1 2 1 2 1 Z " fill="#F8F9F9" transform="translate(748,385)"/>
<path d="" fill="#FBFBFA" transform="translate(0,0)"/>
<path d="M0 0 C2 1 2 1 2 1 Z " fill="#FAFCFA" transform="translate(514,377)"/>
<path d="M0 0 C2 1 2 1 2 1 Z " fill="#F8F9F7" transform="translate(742,370)"/>
<path d="" fill="#FCFBFD" transform="translate(0,0)"/>
<path d="" fill="#FBFCFB" transform="translate(0,0)"/>
<path d="" fill="#FAFAFA" transform="translate(0,0)"/>
<path d="M0 0 C2 1 2 1 2 1 Z " fill="#FAF8FA" transform="translate(602,293)"/>
<path d="M0 0 C2 1 2 1 2 1 Z " fill="#FBFBFC" transform="translate(570,283)"/>
<path d="M0 0 C2 1 2 1 2 1 Z " fill="#F8F7F8" transform="translate(555,279)"/>
<path d="" fill="#F7F8F8" transform="translate(0,0)"/>
<path d="M0 0 C2 1 2 1 2 1 Z " fill="#F7F6F8" transform="translate(599,257)"/>
<path d="M0 0 C2 1 2 1 2 1 Z " fill="#F7F7F7" transform="translate(436,253)"/>
<path d="M0 0 C2 1 2 1 2 1 Z " fill="#F5F7F7" transform="translate(566,248)"/>
<path d="M0 0 C2 1 2 1 2 1 Z " fill="#F6F7F8" transform="translate(472,245)"/>
<path d="M0 0 C2 1 2 1 2 1 Z " fill="#F5F5F5" transform="translate(506,242)"/>
<path d="" fill="#666767" transform="translate(0,0)"/>
<path d="" fill="#747574" transform="translate(0,0)"/>
<path d="" fill="#6A696B" transform="translate(0,0)"/>
<path d="" fill="#7C7A7B" transform="translate(0,0)"/>
<path d="" fill="#676667" transform="translate(0,0)"/>
<path d="" fill="#6C6A6C" transform="translate(0,0)"/>
<path d="" fill="#7D7D7D" transform="translate(0,0)"/>
<path d="" fill="#565858" transform="translate(0,0)"/>
<path d="" fill="#595A58" transform="translate(0,0)"/>
<path d="" fill="#5C5B5B" transform="translate(0,0)"/>
<path d="" fill="#616061" transform="translate(0,0)"/>
<path d="" fill="#7E7D7C" transform="translate(0,0)"/>
<path d="" fill="#7F7F7F" transform="translate(0,0)"/>
<path d="" fill="#5F6060" transform="translate(0,0)"/>
<path d="" fill="#5B5D5B" transform="translate(0,0)"/>
<path d="" fill="#5C5E5F" transform="translate(0,0)"/>
<path d="" fill="#6E6F6D" transform="translate(0,0)"/>
<path d="" fill="#6B6A6A" transform="translate(0,0)"/>
<path d="" fill="#5B5B5D" transform="translate(0,0)"/>
<path d="" fill="#595A5A" transform="translate(0,0)"/>
<path d="" fill="#5A5C5A" transform="translate(0,0)"/>
<path d="" fill="#616262" transform="translate(0,0)"/>
<path d="" fill="#707171" transform="translate(0,0)"/>
<path d="" fill="#5B5B5B" transform="translate(0,0)"/>
<path d="" fill="#5F605F" transform="translate(0,0)"/>
<path d="" fill="#5A5959" transform="translate(0,0)"/>
<path d="" fill="#595959" transform="translate(0,0)"/>
<path d="" fill="#626261" transform="translate(0,0)"/>
<path d="" fill="#727274" transform="translate(0,0)"/>
<path d="" fill="#7F7E7C" transform="translate(0,0)"/>
<path d="" fill="#858686" transform="translate(0,0)"/>
<path d="" fill="#5F5E5D" transform="translate(0,0)"/>
<path d="" fill="#5B5B5A" transform="translate(0,0)"/>
<path d="" fill="#636363" transform="translate(0,0)"/>
<path d="" fill="#5A5B59" transform="translate(0,0)"/>
<path d="" fill="#5A5B5A" transform="translate(0,0)"/>
<path d="" fill="#5C5A5C" transform="translate(0,0)"/>
<path d="" fill="#626162" transform="translate(0,0)"/>
<path d="" fill="#626461" transform="translate(0,0)"/>
<path d="" fill="#757576" transform="translate(0,0)"/>
<path d="" fill="#858582" transform="translate(0,0)"/>
<path d="" fill="#7A7B7A" transform="translate(0,0)"/>
<path d="" fill="#5A5A5A" transform="translate(0,0)"/>
<path d="" fill="#5D5D5C" transform="translate(0,0)"/>
<path d="" fill="#5D5F5D" transform="translate(0,0)"/>
<path d="" fill="#5F605F" transform="translate(0,0)"/>
<path d="" fill="#626162" transform="translate(0,0)"/>
<path d="" fill="#646363" transform="translate(0,0)"/>
<path d="" fill="#716F71" transform="translate(0,0)"/>
<path d="" fill="#818081" transform="translate(0,0)"/>
<path d="" fill="#686968" transform="translate(0,0)"/>
<path d="" fill="#585959" transform="translate(0,0)"/>
<path d="" fill="#5F6060" transform="translate(0,0)"/>
<path d="" fill="#696869" transform="translate(0,0)"/>
<path d="" fill="#636363" transform="translate(0,0)"/>
<path d="" fill="#696B6C" transform="translate(0,0)"/>
<path d="" fill="#606160" transform="translate(0,0)"/>
<path d="" fill="#5C5D5D" transform="translate(0,0)"/>
<path d="" fill="#5D5D5E" transform="translate(0,0)"/>
<path d="" fill="#5D5E5F" transform="translate(0,0)"/>
<path d="" fill="#727572" transform="translate(0,0)"/>
<path d="" fill="#6B696B" transform="translate(0,0)"/>
<path d="" fill="#5C5D5C" transform="translate(0,0)"/>
<path d="" fill="#5D5D5D" transform="translate(0,0)"/>
<path d="" fill="#A9A8A7" transform="translate(0,0)"/>
<path d="" fill="#5F5F5F" transform="translate(0,0)"/>
<path d="" fill="#696A69" transform="translate(0,0)"/>
<path d="" fill="#646465" transform="translate(0,0)"/>
<path d="" fill="#666766" transform="translate(0,0)"/>
<path d="" fill="#646462" transform="translate(0,0)"/>
<path d="" fill="#F3F3F4" transform="translate(0,0)"/>
<path d="" fill="#F4F6F4" transform="translate(0,0)"/>
<path d="" fill="#F4F5F6" transform="translate(0,0)"/>
<path d="" fill="#F4F5F4" transform="translate(0,0)"/>
<path d="" fill="#F5F5F5" transform="translate(0,0)"/>
<path d="" fill="#F7F6F6" transform="translate(0,0)"/>
<path d="" fill="#F3F4F3" transform="translate(0,0)"/>
<path d="" fill="#F5F5F5" transform="translate(0,0)"/>
<path d="" fill="#F5F6F7" transform="translate(0,0)"/>
<path d="" fill="#F4F4F4" transform="translate(0,0)"/>
<path d="" fill="#F5F5F3" transform="translate(0,0)"/>
<path d="" fill="#F8F6F7" transform="translate(0,0)"/>
<path d="" fill="#F7F8F7" transform="translate(0,0)"/>
<path d="" fill="#F3F3F2" transform="translate(0,0)"/>
<path d="" fill="#747574" transform="translate(0,0)"/>
<path d="" fill="#F5F6F7" transform="translate(0,0)"/>
<path d="" fill="#F5F5F4" transform="translate(0,0)"/>
<path d="" fill="#F4F5F4" transform="translate(0,0)"/>
<path d="" fill="#7B7B7A" transform="translate(0,0)"/>
<path d="" fill="#F3F5F5" transform="translate(0,0)"/>
<path d="" fill="#F6F4F6" transform="translate(0,0)"/>
<path d="" fill="#F3F6F5" transform="translate(0,0)"/>
<path d="" fill="#F7F9F9" transform="translate(0,0)"/>
<path d="" fill="#F5F7F6" transform="translate(0,0)"/>
<path d="" fill="#F5F8F6" transform="translate(0,0)"/>
<path d="" fill="#FAF9FA" transform="translate(0,0)"/>
<path d="" fill="#F9F8FA" transform="translate(0,0)"/>
<path d="" fill="#F8F8FA" transform="translate(0,0)"/>
<path d="" fill="#F4F7F7" transform="translate(0,0)"/>
<path d="" fill="#F9F8FA" transform="translate(0,0)"/>
<path d="" fill="#F9FBFA" transform="translate(0,0)"/>
<path d="" fill="#FBFBFC" transform="translate(0,0)"/>
<path d="" fill="#F9FAFB" transform="translate(0,0)"/>
<path d="" fill="#FBFAFA" transform="translate(0,0)"/>
<path d="" fill="#F3F3F4" transform="translate(0,0)"/>
<path d="" fill="#F5F5F8" transform="translate(0,0)"/>
<path d="" fill="#F2F2F1" transform="translate(0,0)"/>
<path d="" fill="#FAFAFA" transform="translate(0,0)"/>
<path d="" fill="#FAFBFA" transform="translate(0,0)"/>
<path d="" fill="#F7F8F9" transform="translate(0,0)"/>
<path d="" fill="#F5F3F8" transform="translate(0,0)"/>
<path d="" fill="#F5F5F8" transform="translate(0,0)"/>
<path d="" fill="#F6F5F6" transform="translate(0,0)"/>
<path d="" fill="#F7F7FB" transform="translate(0,0)"/>
<path d="" fill="#F5F6F6" transform="translate(0,0)"/>
<path d="" fill="#FCFBFC" transform="translate(0,0)"/>
<path d="" fill="#F9FAF9" transform="translate(0,0)"/>
<path d="" fill="#F4F4F4" transform="translate(0,0)"/>
<path d="" fill="#F3F6F4" transform="translate(0,0)"/>
<path d="" fill="#F9FBFA" transform="translate(0,0)"/>
<path d="" fill="#FBFCFC" transform="translate(0,0)"/>
<path d="" fill="#FBFCFD" transform="translate(0,0)"/>
<path d="" fill="#F6F5F5" transform="translate(0,0)"/>
<path d="" fill="#7F8082" transform="translate(0,0)"/>
<path d="" fill="#F6F6F5" transform="translate(0,0)"/>
<path d="" fill="#F6F6F5" transform="translate(0,0)"/>
<path d="" fill="#FAFCFB" transform="translate(0,0)"/>
<path d="" fill="#F6F6F6" transform="translate(0,0)"/>
<path d="" fill="#FBF9FA" transform="translate(0,0)"/>
<path d="" fill="#F5F6F4" transform="translate(0,0)"/>
<path d="" fill="#F8F7F8" transform="translate(0,0)"/>
<path d="" fill="#F8F8F7" transform="translate(0,0)"/>
<path d="" fill="#FFFEFF" transform="translate(0,0)"/>
<path d="" fill="#FCFDFC" transform="translate(0,0)"/>
<path d="" fill="#F5F5F4" transform="translate(0,0)"/>
<path d="" fill="#F8F7F7" transform="translate(0,0)"/>
<path d="" fill="#F9F8F7" transform="translate(0,0)"/>
<path d="" fill="#FAF9FB" transform="translate(0,0)"/>
<path d="" fill="#F6F5F6" transform="translate(0,0)"/>
<path d="" fill="#F8F6F8" transform="translate(0,0)"/>
<path d="" fill="#FBF6F8" transform="translate(0,0)"/>
<path d="" fill="#FCFDFB" transform="translate(0,0)"/>
<path d="" fill="#F4F4F5" transform="translate(0,0)"/>
<path d="" fill="#F8F5F6" transform="translate(0,0)"/>
<path d="" fill="#F4F5F4" transform="translate(0,0)"/>
<path d="" fill="#FBFAFB" transform="translate(0,0)"/>
<path d="" fill="#F9FBFC" transform="translate(0,0)"/>
<path d="" fill="#F6F7F8" transform="translate(0,0)"/>
<path d="" fill="#FAFAFC" transform="translate(0,0)"/>
<path d="" fill="#F5F4F4" transform="translate(0,0)"/>
<path d="" fill="#F7F7F7" transform="translate(0,0)"/>
<path d="" fill="#F6F7F7" transform="translate(0,0)"/>
<path d="" fill="#F8F7F6" transform="translate(0,0)"/>
<path d="" fill="#F7F7F7" transform="translate(0,0)"/>
<path d="" fill="#F6F7F5" transform="translate(0,0)"/>
<path d="" fill="#FDFCFC" transform="translate(0,0)"/>
<path d="" fill="#FDFFFF" transform="translate(0,0)"/>
<path d="" fill="#7A7979" transform="translate(0,0)"/>
<path d="" fill="#FBFBFC" transform="translate(0,0)"/>
<path d="" fill="#FCFBFD" transform="translate(0,0)"/>
<path d="" fill="#F8F8FA" transform="translate(0,0)"/>
<path d="" fill="#F3F5F5" transform="translate(0,0)"/>
<path d="" fill="#F6F5F7" transform="translate(0,0)"/>
<path d="" fill="#F7F7F6" transform="translate(0,0)"/>
<path d="" fill="#FDFAFB" transform="translate(0,0)"/>
<path d="" fill="#F9FCFA" transform="translate(0,0)"/>
<path d="" fill="#F9F9F9" transform="translate(0,0)"/>
<path d="" fill="#F7F6F6" transform="translate(0,0)"/>
<path d="" fill="#F7F6F5" transform="translate(0,0)"/>
<path d="" fill="#F7F4F5" transform="translate(0,0)"/>
<path d="" fill="#FBFCFC" transform="translate(0,0)"/>
<path d="" fill="#7A7B7D" transform="translate(0,0)"/>
<path d="" fill="#FAFCFB" transform="translate(0,0)"/>
<path d="" fill="#FFFEFF" transform="translate(0,0)"/>
<path d="" fill="#FDFBFB" transform="translate(0,0)"/>
<path d="" fill="#F7F5F5" transform="translate(0,0)"/>
<path d="" fill="#F6F8F5" transform="translate(0,0)"/>
<path d="" fill="#F7F7F6" transform="translate(0,0)"/>
<path d="" fill="#FDFAFC" transform="translate(0,0)"/>
<path d="" fill="#F6F5F6" transform="translate(0,0)"/>
<path d="" fill="#FCF9FB" transform="translate(0,0)"/>
<path d="" fill="#999999" transform="translate(0,0)"/>
<path d="" fill="#FBFDFA" transform="translate(0,0)"/>
<path d="" fill="#FDFDFA" transform="translate(0,0)"/>
<path d="" fill="#FAFBFA" transform="translate(0,0)"/>
<path d="" fill="#7C7C7D" transform="translate(0,0)"/>
<path d="" fill="#808080" transform="translate(0,0)"/>
<path d="" fill="#FAF9FA" transform="translate(0,0)"/>
<path d="" fill="#F5F7F6" transform="translate(0,0)"/>
<path d="" fill="#F6F7F7" transform="translate(0,0)"/>
<path d="" fill="#F5F6F6" transform="translate(0,0)"/>
<path d="" fill="#F5F4F4" transform="translate(0,0)"/>
<path d="" fill="#FAFBFA" transform="translate(0,0)"/>
<path d="" fill="#FBFCFC" transform="translate(0,0)"/>
<path d="" fill="#F7F8FA" transform="translate(0,0)"/>
<path d="" fill="#F4F3F4" transform="translate(0,0)"/>
<path d="" fill="#F9F7F8" transform="translate(0,0)"/>
<path d="" fill="#FBFAFB" transform="translate(0,0)"/>
<path d="" fill="#FCFBFB" transform="translate(0,0)"/>
<path d="" fill="#FBFCFB" transform="translate(0,0)"/>
<path d="" fill="#F6F7F7" transform="translate(0,0)"/>
<path d="" fill="#F9F9FA" transform="translate(0,0)"/>
<path d="" fill="#FBFBFA" transform="translate(0,0)"/>
<path d="" fill="#807E7F" transform="translate(0,0)"/>
<path d="" fill="#FBFDFB" transform="translate(0,0)"/>
<path d="" fill="#FCFBFC" transform="translate(0,0)"/>
<path d="" fill="#FDFDFF" transform="translate(0,0)"/>
<path d="" fill="#F9FBFA" transform="translate(0,0)"/>
<path d="" fill="#F1F1F3" transform="translate(0,0)"/>
<path d="" fill="#F5F6F6" transform="translate(0,0)"/>
<path d="" fill="#FEFEFE" transform="translate(0,0)"/>
<path d="" fill="#FBFCFB" transform="translate(0,0)"/>
<path d="" fill="#FCFCFD" transform="translate(0,0)"/>
<path d="" fill="#848583" transform="translate(0,0)"/>
<path d="" fill="#FDFDFD" transform="translate(0,0)"/>
<path d="" fill="#FAFAFA" transform="translate(0,0)"/>
<path d="" fill="#F5F3F5" transform="translate(0,0)"/>
<path d="" fill="#FBFAFC" transform="translate(0,0)"/>
<path d="" fill="#FBF9FB" transform="translate(0,0)"/>
<path d="" fill="#FBFBFA" transform="translate(0,0)"/>
<path d="" fill="#FBFBFA" transform="translate(0,0)"/>
<path d="" fill="#F7F8F7" transform="translate(0,0)"/>
<path d="" fill="#FCFBFB" transform="translate(0,0)"/>
<path d="" fill="#FCFDFD" transform="translate(0,0)"/>
<path d="" fill="#F3F5F5" transform="translate(0,0)"/>
<path d="" fill="#FCFAFA" transform="translate(0,0)"/>
<path d="" fill="#F6F5F5" transform="translate(0,0)"/>
<path d="" fill="#FBFBFC" transform="translate(0,0)"/>
<path d="" fill="#FBFCFC" transform="translate(0,0)"/>
<path d="" fill="#FCF9FA" transform="translate(0,0)"/>
<path d="" fill="#FAFCFA" transform="translate(0,0)"/>
<path d="" fill="#F5F3F4" transform="translate(0,0)"/>
<path d="" fill="#FEFDFC" transform="translate(0,0)"/>
<path d="" fill="#FDFEFD" transform="translate(0,0)"/>
<path d="" fill="#F9F8FA" transform="translate(0,0)"/>
<path d="" fill="#F9FCFA" transform="translate(0,0)"/>
<path d="" fill="#FBFBFB" transform="translate(0,0)"/>
<path d="" fill="#FBFBFD" transform="translate(0,0)"/>
<path d="" fill="#F8F8F8" transform="translate(0,0)"/>
<path d="" fill="#FAF9FC" transform="translate(0,0)"/>
<path d="" fill="#FCFDFD" transform="translate(0,0)"/>
<path d="" fill="#FBF9FA" transform="translate(0,0)"/>
<path d="" fill="#FAFAFA" transform="translate(0,0)"/>
<path d="" fill="#868686" transform="translate(0,0)"/>
<path d="" fill="#FCFDFC" transform="translate(0,0)"/>
<path d="" fill="#FBFBFC" transform="translate(0,0)"/>
<path d="" fill="#FDFDFD" transform="translate(0,0)"/>
<path d="" fill="#FAFBFA" transform="translate(0,0)"/>
<path d="" fill="#F6F6F9" transform="translate(0,0)"/>
<path d="" fill="#FAFAFA" transform="translate(0,0)"/>
<path d="" fill="#FCFDFC" transform="translate(0,0)"/>
<path d="" fill="#F9FBF9" transform="translate(0,0)"/>
<path d="" fill="#FBFBFD" transform="translate(0,0)"/>
<path d="" fill="#FAF9FC" transform="translate(0,0)"/>
<path d="" fill="#FAFDFC" transform="translate(0,0)"/>
<path d="" fill="#FCFCFC" transform="translate(0,0)"/>
<path d="" fill="#FBFAFC" transform="translate(0,0)"/>
<path d="" fill="#FBFBFC" transform="translate(0,0)"/>
<path d="" fill="#FBFAFC" transform="translate(0,0)"/>
<path d="" fill="#FBFCFC" transform="translate(0,0)"/>
<path d="" fill="#FCFCFB" transform="translate(0,0)"/>
<path d="" fill="#FAFBFC" transform="translate(0,0)"/>
<path d="" fill="#FAFBFB" transform="translate(0,0)"/>
<path d="" fill="#FCFBFB" transform="translate(0,0)"/>
<path d="" fill="#FAF7F8" transform="translate(0,0)"/>
<path d="" fill="#F8F8F7" transform="translate(0,0)"/>
<path d="" fill="#F7F9F8" transform="translate(0,0)"/>
<path d="" fill="#F6F5F7" transform="translate(0,0)"/>
<path d="" fill="#FDFDFE" transform="translate(0,0)"/>
<path d="" fill="#F5F4F5" transform="translate(0,0)"/>
<path d="" fill="#F5F5F6" transform="translate(0,0)"/>
<path d="" fill="#FBFDFD" transform="translate(0,0)"/>
<path d="" fill="#FAF8FB" transform="translate(0,0)"/>
<path d="" fill="#F5F4F6" transform="translate(0,0)"/>
<path d="" fill="#FCFCFB" transform="translate(0,0)"/>
<path d="" fill="#FAFAFB" transform="translate(0,0)"/>
<path d="" fill="#FAFAFB" transform="translate(0,0)"/>
<path d="" fill="#F9FAFB" transform="translate(0,0)"/>
<path d="" fill="#F8F7F8" transform="translate(0,0)"/>
<path d="" fill="#FDFFFF" transform="translate(0,0)"/>
<path d="" fill="#F8F8F8" transform="translate(0,0)"/>
<path d="" fill="#FBFBFB" transform="translate(0,0)"/>
<path d="" fill="#FBFAFB" transform="translate(0,0)"/>
<path d="" fill="#F8F7F7" transform="translate(0,0)"/>
<path d="" fill="#FBFAFC" transform="translate(0,0)"/>
<path d="" fill="#F7F6F5" transform="translate(0,0)"/>
<path d="" fill="#FAFBFA" transform="translate(0,0)"/>
<path d="" fill="#F9FAFA" transform="translate(0,0)"/>
<path d="" fill="#FDFDFD" transform="translate(0,0)"/>
<path d="" fill="#B6B7B7" transform="translate(0,0)"/>
<path d="" fill="#FCF9FC" transform="translate(0,0)"/>
<path d="" fill="#F6F6F7" transform="translate(0,0)"/>
<path d="" fill="#F8FBFC" transform="translate(0,0)"/>
<path d="" fill="#F7F6F8" transform="translate(0,0)"/>
<path d="" fill="#F6FAF9" transform="translate(0,0)"/>
<path d="" fill="#FCFDFE" transform="translate(0,0)"/>
<path d="" fill="#FAFBFF" transform="translate(0,0)"/>
<path d="" fill="#F8F8F7" transform="translate(0,0)"/>
<path d="" fill="#909090" transform="translate(0,0)"/>
<path d="" fill="#FAF9F9" transform="translate(0,0)"/>
<path d="" fill="#FCFDFD" transform="translate(0,0)"/>
<path d="" fill="#F9FAF8" transform="translate(0,0)"/>
<path d="" fill="#FCFBFD" transform="translate(0,0)"/>
<path d="" fill="#F8F7F8" transform="translate(0,0)"/>
<path d="" fill="#FDFCFD" transform="translate(0,0)"/>
<path d="" fill="#FCFCFE" transform="translate(0,0)"/>
<path d="" fill="#FAF8F9" transform="translate(0,0)"/>
<path d="" fill="#F7F7F8" transform="translate(0,0)"/>
<path d="" fill="#838383" transform="translate(0,0)"/>
<path d="" fill="#F9FBFB" transform="translate(0,0)"/>
<path d="" fill="#F9FBFB" transform="translate(0,0)"/>
<path d="" fill="#FEFBFF" transform="translate(0,0)"/>
<path d="" fill="#FDFDFF" transform="translate(0,0)"/>
<path d="" fill="#FBF9F9" transform="translate(0,0)"/>
<path d="" fill="#FFFFFF" transform="translate(0,0)"/>
<path d="" fill="#FBFAFD" transform="translate(0,0)"/>
<path d="" fill="#FAF8FA" transform="translate(0,0)"/>
<path d="" fill="#F8F9F8" transform="translate(0,0)"/>
<path d="" fill="#FBFBFC" transform="translate(0,0)"/>
<path d="" fill="#FAFAF9" transform="translate(0,0)"/>
<path d="" fill="#7F7F80" transform="translate(0,0)"/>
<path d="" fill="#F8F8F7" transform="translate(0,0)"/>
<path d="" fill="#F6F9F8" transform="translate(0,0)"/>
<path d="" fill="#FCFCFD" transform="translate(0,0)"/>
<path d="" fill="#FAFAFA" transform="translate(0,0)"/>
<path d="" fill="#F9F8F8" transform="translate(0,0)"/>
<path d="" fill="#FAFBFB" transform="translate(0,0)"/>
<path d="" fill="#FDF9FD" transform="translate(0,0)"/>
<path d="" fill="#F7F5F7" transform="translate(0,0)"/>
<path d="" fill="#F8F9F8" transform="translate(0,0)"/>
<path d="" fill="#F8FBFB" transform="translate(0,0)"/>
<path d="" fill="#FCFBFC" transform="translate(0,0)"/>
<path d="" fill="#FBFBF8" transform="translate(0,0)"/>
<path d="" fill="#FEFDFB" transform="translate(0,0)"/>
<path d="" fill="#FBFBFB" transform="translate(0,0)"/>
<path d="" fill="#F7F7F8" transform="translate(0,0)"/>
<path d="" fill="#F8F8F7" transform="translate(0,0)"/>
<path d="" fill="#FBFCFD" transform="translate(0,0)"/>
<path d="" fill="#FAFBFA" transform="translate(0,0)"/>
<path d="" fill="#FAF9FA" transform="translate(0,0)"/>
<path d="" fill="#F7F6F5" transform="translate(0,0)"/>
<path d="" fill="#FAF9FB" transform="translate(0,0)"/>
<path d="" fill="#F8F9FC" transform="translate(0,0)"/>
<path d="" fill="#F9F7F7" transform="translate(0,0)"/>
<path d="" fill="#F5F7F6" transform="translate(0,0)"/>
<path d="" fill="#F8F8F7" transform="translate(0,0)"/>
<path d="" fill="#FDFCFB" transform="translate(0,0)"/>
<path d="" fill="#FBFAFA" transform="translate(0,0)"/>
<path d="" fill="#FBF9FA" transform="translate(0,0)"/>
<path d="" fill="#FEFDFD" transform="translate(0,0)"/>
<path d="" fill="#FBFCFC" transform="translate(0,0)"/>
<path d="" fill="#FBFAFB" transform="translate(0,0)"/>
<path d="" fill="#FAFBFA" transform="translate(0,0)"/>
<path d="" fill="#FBFBFB" transform="translate(0,0)"/>
<path d="" fill="#F9FAFA" transform="translate(0,0)"/>
<path d="" fill="#FAFAF9" transform="translate(0,0)"/>
<path d="" fill="#F9F9FA" transform="translate(0,0)"/>
<path d="" fill="#FDFAFA" transform="translate(0,0)"/>
<path d="" fill="#F5F7F7" transform="translate(0,0)"/>
<path d="" fill="#F7F7F9" transform="translate(0,0)"/>
<path d="" fill="#FAFBFD" transform="translate(0,0)"/>
<path d="" fill="#FBFBFB" transform="translate(0,0)"/>
<path d="" fill="#FAFAF9" transform="translate(0,0)"/>
<path d="" fill="#FAFAFA" transform="translate(0,0)"/>
<path d="" fill="#FAF7F9" transform="translate(0,0)"/>
<path d="" fill="#F7F7FB" transform="translate(0,0)"/>
<path d="" fill="#F8F9F8" transform="translate(0,0)"/>
<path d="" fill="#F6F5F5" transform="translate(0,0)"/>
<path d="" fill="#F7FBFB" transform="translate(0,0)"/>
<path d="" fill="#FCFDFE" transform="translate(0,0)"/>
<path d="" fill="#FBFBFC" transform="translate(0,0)"/>
<path d="" fill="#F9F9F8" transform="translate(0,0)"/>
<path d="" fill="#FEFEFC" transform="translate(0,0)"/>
<path d="" fill="#FFFEFB" transform="translate(0,0)"/>
<path d="" fill="#FCF9FC" transform="translate(0,0)"/>
<path d="" fill="#F7F5F5" transform="translate(0,0)"/>
<path d="" fill="#787A79" transform="translate(0,0)"/>
<path d="" fill="#9A9A9B" transform="translate(0,0)"/>
<path d="" fill="#FDFCFA" transform="translate(0,0)"/>
<path d="" fill="#F9F9F8" transform="translate(0,0)"/>
<path d="" fill="#FDFCFE" transform="translate(0,0)"/>
<path d="" fill="#FBFAFA" transform="translate(0,0)"/>
<path d="" fill="#F8F7F7" transform="translate(0,0)"/>
<path d="" fill="#F8F8F9" transform="translate(0,0)"/>
<path d="" fill="#FAFBF9" transform="translate(0,0)"/>
<path d="" fill="#F9FBF9" transform="translate(0,0)"/>
<path d="" fill="#F8F9F9" transform="translate(0,0)"/>
<path d="" fill="#7C7E7D" transform="translate(0,0)"/>
<path d="" fill="#FBFBF8" transform="translate(0,0)"/>
<path d="" fill="#F8F8F8" transform="translate(0,0)"/>
<path d="" fill="#FCFAFA" transform="translate(0,0)"/>
<path d="" fill="#F7F7F6" transform="translate(0,0)"/>
<path d="" fill="#F6F6F7" transform="translate(0,0)"/>
<path d="" fill="#F8F8F9" transform="translate(0,0)"/>
<path d="" fill="#797A78" transform="translate(0,0)"/>
<path d="" fill="#F8F9F9" transform="translate(0,0)"/>
<path d="" fill="#F9FAFB" transform="translate(0,0)"/>
<path d="" fill="#F7FAF9" transform="translate(0,0)"/>
<path d="" fill="#FBFCFC" transform="translate(0,0)"/>
<path d="" fill="#F7F7F7" transform="translate(0,0)"/>
<path d="" fill="#FAFAFA" transform="translate(0,0)"/>
<path d="" fill="#FCFDFC" transform="translate(0,0)"/>
<path d="" fill="#F8F8FA" transform="translate(0,0)"/>
<path d="" fill="#F8F9FB" transform="translate(0,0)"/>
<path d="" fill="#FBFBFC" transform="translate(0,0)"/>
<path d="" fill="#FAFAFB" transform="translate(0,0)"/>
<path d="" fill="#F7F9F8" transform="translate(0,0)"/>
<path d="" fill="#FBFDFE" transform="translate(0,0)"/>
<path d="" fill="#FDFCFD" transform="translate(0,0)"/>
<path d="" fill="#FAFBFA" transform="translate(0,0)"/>
<path d="" fill="#F9FAFB" transform="translate(0,0)"/>
<path d="" fill="#F8FAFB" transform="translate(0,0)"/>
<path d="" fill="#F9FAFB" transform="translate(0,0)"/>
<path d="" fill="#777876" transform="translate(0,0)"/>
<path d="" fill="#FBFEFB" transform="translate(0,0)"/>
<path d="" fill="#F9FBFC" transform="translate(0,0)"/>
<path d="" fill="#FCFDFD" transform="translate(0,0)"/>
<path d="" fill="#FCFAFA" transform="translate(0,0)"/>
<path d="" fill="#FAFCFB" transform="translate(0,0)"/>
<path d="" fill="#F8FAFB" transform="translate(0,0)"/>
<path d="" fill="#FBFDFC" transform="translate(0,0)"/>
<path d="" fill="#FAF9FC" transform="translate(0,0)"/>
<path d="" fill="#F9F7FA" transform="translate(0,0)"/>
<path d="" fill="#FBFBFC" transform="translate(0,0)"/>
<path d="" fill="#FAFAFB" transform="translate(0,0)"/>
<path d="" fill="#FBFBFB" transform="translate(0,0)"/>
<path d="" fill="#F8FAF7" transform="translate(0,0)"/>
<path d="" fill="#FAFCFE" transform="translate(0,0)"/>
<path d="" fill="#F9F8F8" transform="translate(0,0)"/>
<path d="" fill="#FBFCFC" transform="translate(0,0)"/>
<path d="" fill="#F9F9FA" transform="translate(0,0)"/>
<path d="" fill="#F7F9F7" transform="translate(0,0)"/>
<path d="" fill="#FCFBFC" transform="translate(0,0)"/>
<path d="" fill="#FAFBFB" transform="translate(0,0)"/>
<path d="" fill="#F5F7F5" transform="translate(0,0)"/>
<path d="" fill="#F6F8FA" transform="translate(0,0)"/>
<path d="" fill="#FCFCFB" transform="translate(0,0)"/>
<path d="" fill="#FBF9FB" transform="translate(0,0)"/>
<path d="" fill="#FCFCFA" transform="translate(0,0)"/>
<path d="" fill="#F8FAF9" transform="translate(0,0)"/>
<path d="" fill="#FCFAFC" transform="translate(0,0)"/>
<path d="" fill="#7F7E80" transform="translate(0,0)"/>
<path d="" fill="#F9F7F9" transform="translate(0,0)"/>
<path d="" fill="#F9F7F8" transform="translate(0,0)"/>
<path d="" fill="#F9F9FA" transform="translate(0,0)"/>
<path d="" fill="#FBF9FB" transform="translate(0,0)"/>
<path d="" fill="#FAFAF8" transform="translate(0,0)"/>
<path d="" fill="#FBFAFB" transform="translate(0,0)"/>
<path d="" fill="#F8F9F8" transform="translate(0,0)"/>
<path d="" fill="#F9F9FB" transform="translate(0,0)"/>
<path d="" fill="#F9FAF8" transform="translate(0,0)"/>
<path d="" fill="#F9F8FA" transform="translate(0,0)"/>
<path d="" fill="#F7F8F8" transform="translate(0,0)"/>
<path d="" fill="#F8F8FA" transform="translate(0,0)"/>
<path d="" fill="#FAF9F9" transform="translate(0,0)"/>
<path d="" fill="#F9FAF9" transform="translate(0,0)"/>
<path d="" fill="#F7F8F8" transform="translate(0,0)"/>
<path d="" fill="#F6F7F7" transform="translate(0,0)"/>
<path d="" fill="#F6F7F7" transform="translate(0,0)"/>
<path d="" fill="#F8FCFB" transform="translate(0,0)"/>
<path d="" fill="#F8F8F7" transform="translate(0,0)"/>
<path d="" fill="#F6F7F9" transform="translate(0,0)"/>
<path d="" fill="#F6F8F6" transform="translate(0,0)"/>
<path d="" fill="#757776" transform="translate(0,0)"/>
<path d="" fill="#F7F8F7" transform="translate(0,0)"/>
<path d="" fill="#F9F8F9" transform="translate(0,0)"/>
<path d="" fill="#F8F8F9" transform="translate(0,0)"/>
<path d="" fill="#F9F7F8" transform="translate(0,0)"/>
<path d="" fill="#F6F8F9" transform="translate(0,0)"/>
<path d="" fill="#FAF8F9" transform="translate(0,0)"/>
<path d="" fill="#F4F6F5" transform="translate(0,0)"/>
<path d="" fill="#F7F9F9" transform="translate(0,0)"/>
<path d="" fill="#F9F9F9" transform="translate(0,0)"/>
<path d="" fill="#F8FAFA" transform="translate(0,0)"/>
<path d="" fill="#F9FAFA" transform="translate(0,0)"/>
<path d="" fill="#FAFCFB" transform="translate(0,0)"/>
<path d="" fill="#FAFCFC" transform="translate(0,0)"/>
<path d="" fill="#F7F7F7" transform="translate(0,0)"/>
<path d="" fill="#F7F9F8" transform="translate(0,0)"/>
<path d="" fill="#F8F9F8" transform="translate(0,0)"/>
<path d="" fill="#F7F7F9" transform="translate(0,0)"/>
<path d="" fill="#F8F9F8" transform="translate(0,0)"/>
<path d="" fill="#838383" transform="translate(0,0)"/>
<path d="" fill="#F7F7F7" transform="translate(0,0)"/>
<path d="" fill="#F8F8F9" transform="translate(0,0)"/>
<path d="" fill="#F6F6F5" transform="translate(0,0)"/>
<path d="" fill="#F8FAF8" transform="translate(0,0)"/>
<path d="" fill="#FAF7F9" transform="translate(0,0)"/>
<path d="" fill="#F8F9F8" transform="translate(0,0)"/>
<path d="" fill="#79797A" transform="translate(0,0)"/>
<path d="" fill="#6C6B6B" transform="translate(0,0)"/>
<path d="" fill="#717373" transform="translate(0,0)"/>
<path d="" fill="#6A6C6D" transform="translate(0,0)"/>
<path d="" fill="#6D6C6C" transform="translate(0,0)"/>
<path d="" fill="#757776" transform="translate(0,0)"/>
<path d="" fill="#616060" transform="translate(0,0)"/>
<path d="" fill="#9A9B99" transform="translate(0,0)"/>
<path d="" fill="#606262" transform="translate(0,0)"/>
<path d="" fill="#666668" transform="translate(0,0)"/>
<path d="" fill="#868687" transform="translate(0,0)"/>
<path d="" fill="#717372" transform="translate(0,0)"/>
<path d="" fill="#666867" transform="translate(0,0)"/>
<path d="" fill="#646266" transform="translate(0,0)"/>
<path d="" fill="#5D5E5D" transform="translate(0,0)"/>
<path d="" fill="#5D5E5F" transform="translate(0,0)"/>
<path d="" fill="#676667" transform="translate(0,0)"/>
<path d="" fill="#5C5D5E" transform="translate(0,0)"/>
<path d="" fill="#666767" transform="translate(0,0)"/>
<path d="" fill="#5C5C5C" transform="translate(0,0)"/>
<path d="" fill="#5D5D5E" transform="translate(0,0)"/>
<path d="" fill="#676666" transform="translate(0,0)"/>
<path d="" fill="#5C5D5D" transform="translate(0,0)"/>
<path d="" fill="#818181" transform="translate(0,0)"/>
<path d="" fill="#5B5B5B" transform="translate(0,0)"/>
<path d="" fill="#605F5F" transform="translate(0,0)"/>
<path d="" fill="#616160" transform="translate(0,0)"/>
<path d="" fill="#6A6969" transform="translate(0,0)"/>
<path d="" fill="#797A7B" transform="translate(0,0)"/>
<path d="" fill="#858283" transform="translate(0,0)"/>
<path d="" fill="#8D8B8C" transform="translate(0,0)"/>
<path d="" fill="#5E5E5D" transform="translate(0,0)"/>
<path d="" fill="#5C5A5A" transform="translate(0,0)"/>
<path d="" fill="#666566" transform="translate(0,0)"/>
<path d="" fill="#696C69" transform="translate(0,0)"/>
<path d="" fill="#7B7B79" transform="translate(0,0)"/>
<path d="" fill="#808080" transform="translate(0,0)"/>
<path d="" fill="#858686" transform="translate(0,0)"/>
<path d="" fill="#5F5E5F" transform="translate(0,0)"/>
<path d="" fill="#7A7B7A" transform="translate(0,0)"/>
<path d="" fill="#727273" transform="translate(0,0)"/>
<path d="" fill="#5E5C5D" transform="translate(0,0)"/>
<path d="" fill="#5F5E5F" transform="translate(0,0)"/>
<path d="" fill="#646260" transform="translate(0,0)"/>
<path d="" fill="#606362" transform="translate(0,0)"/>
<path d="" fill="#727172" transform="translate(0,0)"/>
<path d="" fill="#656567" transform="translate(0,0)"/>
<path d="" fill="#605F5E" transform="translate(0,0)"/>
<path d="" fill="#595C5B" transform="translate(0,0)"/>
<path d="" fill="#606261" transform="translate(0,0)"/>
<path d="" fill="#706F70" transform="translate(0,0)"/>
<path d="" fill="#888788" transform="translate(0,0)"/>
<path d="" fill="#5D5D5C" transform="translate(0,0)"/>
<path d="" fill="#5C5C5D" transform="translate(0,0)"/>
<path d="" fill="#848384" transform="translate(0,0)"/>
<path d="" fill="#5C5D5C" transform="translate(0,0)"/>
<path d="" fill="#605F60" transform="translate(0,0)"/>
<path d="" fill="#60605F" transform="translate(0,0)"/>
<path d="" fill="#656364" transform="translate(0,0)"/>
<path d="" fill="#686867" transform="translate(0,0)"/>
<path d="" fill="#6F706E" transform="translate(0,0)"/>
<path d="" fill="#787878" transform="translate(0,0)"/>
<path d="" fill="#7B7C7A" transform="translate(0,0)"/>
<path d="" fill="#747374" transform="translate(0,0)"/>
<path d="" fill="#707170" transform="translate(0,0)"/>
<path d="" fill="#676867" transform="translate(0,0)"/>
<path d="" fill="#5C5B5C" transform="translate(0,0)"/>
<path d="" fill="#5C5B5B" transform="translate(0,0)"/>
<path d="" fill="#5E5E5D" transform="translate(0,0)"/>
<path d="" fill="#757676" transform="translate(0,0)"/>
<path d="" fill="#848483" transform="translate(0,0)"/>
</svg>
